
<svg width="1440" height="400" viewBox="0 0 1440 400" fill="none" xmlns="http://www.w3.org/2000/svg">
  <path d="M1440 352.5C1360 352.5 1300 297.5 1300 230C1300 162.5 1360 107.5 1440 107.5" stroke="#A8D8EA" stroke-width="1.5" stroke-dasharray="6 6"/>
  <path d="M0 292.5C80 292.5 140 237.5 140 170C140 102.5 80 47.5 0 47.5" stroke="#FFD3B6" stroke-width="1.5" stroke-dasharray="6 6"/>
  <path opacity="0.4" d="M600 400C680 400 740 345 740 277.5C740 210 680 155 600 155" stroke="#AACFB0" stroke-width="1.5" stroke-dasharray="6 6"/>
  <path opacity="0.6" d="M840 0C920 0 980 55 980 122.5C980 190 920 245 840 245" stroke="#FFD3B6" stroke-width="1.5" stroke-dasharray="6 6"/>
  <circle cx="120" cy="220" r="8" fill="#A8D8EA" fill-opacity="0.4"/>
  <circle cx="420" cy="120" r="6" fill="#FFD3B6" fill-opacity="0.4"/>
  <circle cx="720" cy="320" r="10" fill="#AACFB0" fill-opacity="0.4"/>
  <circle cx="1020" cy="220" r="7" fill="#FFD3B6" fill-opacity="0.4"/>
  <circle cx="1320" cy="170" r="9" fill="#A8D8EA" fill-opacity="0.4"/>
</svg>
